<?xml version="1.0" encoding="utf-8"?>
<!-- Generator: Adobe Illustrator 16.0.0, SVG Export Plug-In . SVG Version: 6.00 Build 0)  -->
<!DOCTYPE svg PUBLIC "-//W3C//DTD SVG 1.1//EN" "http://www.w3.org/Graphics/SVG/1.1/DTD/svg11.dtd">
<svg version="1.1" id="svg2"  xmlns:dc="http://purl.org/dc/elements/1.1/" xmlns:cc="http://web.resource.org/cc/" xmlns:rdf="http://www.w3.org/1999/02/22-rdf-syntax-ns#" xmlns="http://www.w3.org/2000/svg" xmlns:xlink="http://www.w3.org/1999/xlink" x="0px" y="0px" width="1500px" height="1000px" viewBox="0 0 1500 1000" enable-background="new 0 0 1500 1000" xml:space="preserve">
<symbol  id="man" viewBox="-208.963 -398.491 417.927 796.982">
	<path fill="#41B5E1" d="M204.802-47.672C204.829-47.686,204.824-47.683,204.802-47.672L204.802-47.672z"/>
	<path fill="#41B5E1" d="M202.885-46.668c0.903-0.473,1.789-0.937,1.917-1.004c-0.111,0.059-0.667,0.35-1.933,1.013
		C171.16-30.058,159.647-6.462,151.581,27.68c-4.358,18.447-6.409,38.037-14.386,55.383c-8.199,17.828-14.553,33.229-15.836,53.118
		c-1.865,28.909,9.991,86.611-15.431,106.431c-14.653,11.423-34.399,17.918-50.361,27.604
		c-19.783,12.005-19.018,15.37-18.464,36.337c0.115,4.391-0.013,8.807,0.016,13.1l4.772,3.262c3.273,2.26,5.199,4.873,6.249,8.377
		c2.289,7.639,1.962,14.746-0.824,17.268c-1.303,1.18-2.691,4.559-3.089,7.484c-4.55,33.405-7.109,37.234-26.881,40.683
		c-7.205,1.257-11.477,1.866-15.262,1.751c-0.007,0-0.015,0-0.022,0c-3.786-0.119-7.088-0.97-12.283-2.609
		c-9.596-3.029-15.959-8.207-18.985-15.449c-3.431-8.21-1.977-17.989-3.714-26.572c-1.36-6.721-6.287-8.357-5.247-16.102
		c1.163-8.658,3.758-14.906,7.519-18.092c2.483-2.104,4.485-7.253,5.646-13.1c7.499-37.766-35.214-37.835-60.21-49.934
		c-36.167-17.507-29.618-76.828-37.854-110.734c-5.164-21.26-16.046-39.779-22.597-60.447c-5.811-18.33-6.016-37.527-10.832-56.019
		c-2.533-9.724-5.252-32.311-14.224-38.108c-12.918-8.337-28.876-14.072-37.726-28.076c-4.438-7.023,21.178,0.126,22.13-0.623
		c3.444-2.709-4.61-32.15-5.197-37.313c-1.458-12.815,14.267-21.639,23.875-11.965c11.884,11.967,15.575,3.958,21.229,24.971
		c3.988,14.823,2.618,42.814,11.91,54.997c11.14,14.608,15.368,34.849,22.257,51.655c4.272,10.424,34.105,91.738,34.173,91.721
		c9.932-2.504,8.501-46.308,8.246-53.423c-0.792-22.077-6.21-43.583-9.541-65.333c-6.782-44.275,0.162-91.492,6.399-135.558
		c1.753-12.392,8.198-30.918,5.953-42.836c-3.479-18.478-8.245-36.518-10.415-55.304c-4.424-38.293,15.314-91.269-1.149-126.808
		c-5.762-12.438-15.562-24.476-24.311-34.939c-13.036-15.593,7.202-19.239,19.283-20.476c28.294-2.897,43.289,43.437,40.212,67.317
		c-2.924,22.695,2.35,40.129,8.382,61.773c6.6,23.679,6.403,48.434,9.913,72.609C-23.553-185.63-1.462-70.686,0.623-70.739
		c10.203-0.263,9.182-88.085,11.139-97.982c7.559-38.238,6.526-77.333,14.224-116.175c4.833-24.39-10.842-68.781,9.019-85.817
		c12.35-10.594,54.03-45.489,66.417-16.543l2.266,5.321c-12.487,15.989-31.485,23.875-45.386,38.245
		c-0.951,42.913,12.725,84.319,11.456,127.195c-1.255,42.374-0.85,80.908,4.878,123.032C79.36-58.707,89.11-21.74,83.621,13.302
		c-2.945,18.802-9.444,37.204-9.925,56.305c-0.289,11.47-9.549,48.528,1.874,55.973c5.403,0,18.126-67.798,20.995-74.453
		c8.717-20.222,19.342-39.585,30.163-58.727c11.647-20.604,10.972-41.807,19.75-63.078c5.289-12.817,10.051-23.069,22.374-30.489
		c7.057-4.248,21.26-2.977,21.882,7.681c0.667,11.434-8.575,28.557-3.75,39.571C186.044-56.057,223.188-57.31,202.885-46.668z
		 M200.923-45.641C200.857-45.605,200.858-45.606,200.923-45.641L200.923-45.641z"/>
</symbol>
<use xlink:href="#man"  width="417.927" height="796.982" x="-208.963" y="-398.491" transform="matrix(1 0 0 -1 256.6719 524.1563)" overflow="visible"/>
<use xlink:href="#man"  width="417.927" height="796.982" x="-208.963" y="-398.491" transform="matrix(1 0 0 -1 1272.5381 524.9893)" overflow="visible"/>
<rect id="rect2281" x="553.086" y="75.634" fill="#41B5E1" stroke="#000000" stroke-width="0.5325" width="423.731" height="848.731"/>
<g>
	<path fill="#FF0000" stroke="#000000" stroke-width="0.8668" d="M319.018,819.087c0.015,10.145-8.198,18.38-18.343,18.394
		s-18.379-8.198-18.394-18.343c0-0.017,0-0.034,0-0.051c-0.014-10.145,8.198-18.38,18.343-18.394s18.38,8.198,18.394,18.343
		C319.018,819.053,319.018,819.07,319.018,819.087z M1334.336,615.479c0.014,10.145-8.198,18.38-18.343,18.394
		s-18.38-8.198-18.394-18.343c0-0.017,0-0.034,0-0.051c-0.015-10.145,8.198-18.38,18.343-18.394
		c10.145-0.015,18.379,8.198,18.394,18.343C1334.336,615.445,1334.336,615.463,1334.336,615.479z"/>
	<path fill="#04CB99" stroke="#000000" stroke-width="0.8668" d="M215.059,819.087c0.014,10.145-8.198,18.38-18.343,18.394
		s-18.379-8.198-18.394-18.343c0-0.017,0-0.034,0-0.051c-0.014-10.145,8.198-18.38,18.343-18.394s18.379,8.198,18.394,18.343
		C215.059,819.053,215.059,819.07,215.059,819.087z M1252.31,615.479c0.015,10.145-8.198,18.38-18.343,18.394
		s-18.379-8.198-18.394-18.343c0-0.017,0-0.034,0-0.051c-0.014-10.145,8.198-18.38,18.343-18.394
		c10.145-0.015,18.38,8.198,18.394,18.343C1252.31,615.445,1252.31,615.463,1252.31,615.479z"/>
	<path fill="#FFFFFF" stroke="#000000" stroke-width="0.8668" d="M125.936,519.286c0.014,10.145-8.198,18.38-18.343,18.394
		s-18.379-8.198-18.394-18.343c0-0.017,0-0.034,0-0.051c-0.014-10.145,8.198-18.38,18.343-18.394s18.38,8.198,18.394,18.343
		C125.936,519.252,125.936,519.27,125.936,519.286z M1213.596,298.695c0.014,10.145-8.198,18.38-18.343,18.394
		c-10.145,0.014-18.38-8.198-18.394-18.343c0-0.017,0-0.034,0-0.051c-0.014-10.144,8.198-18.379,18.343-18.394
		c10.145-0.014,18.38,8.198,18.394,18.343C1213.596,298.662,1213.596,298.679,1213.596,298.695z"/>
	<path stroke="#000000" stroke-width="0.8668" d="M415.238,519.286c0.014,10.145-8.198,18.38-18.343,18.394
		s-18.38-8.198-18.394-18.343c-0.001-0.017-0.001-0.034,0-0.051c-0.015-10.145,8.198-18.38,18.342-18.394
		c10.145-0.014,18.38,8.198,18.395,18.343C415.238,519.252,415.238,519.27,415.238,519.286z M1374.756,298.695
		c0.015,10.145-8.197,18.38-18.342,18.394c-10.145,0.014-18.38-8.198-18.395-18.343c0-0.017,0-0.034,0-0.051
		c-0.014-10.144,8.199-18.379,18.344-18.394c10.144-0.014,18.379,8.198,18.393,18.343
		C1374.756,298.662,1374.756,298.679,1374.756,298.695z"/>
</g>
<rect id="rect9342" x="589.752" y="114.313" fill="#FFFFFF" stroke="#000000" stroke-width="0.5325" width="350.399" height="260.145"/>
<rect id="rect11286" x="589.724" y="643.436" fill="#FFFFFF" stroke="#000000" stroke-width="0.5325" width="350.456" height="247.701"/>
<path fill="#41B5E1" d="M259.782,125.647c-0.11,0.003-0.422,0.013-1.043,0.032c0.005,0,0.01,0,0.015,0
	C259.2,125.666,259.64,125.652,259.782,125.647z"/>
<path fill="#41B5E1" d="M258.731,125.68c0.002,0,0.005,0,0.007,0C256.85,125.738,257.787,125.709,258.731,125.68z"/>
<path fill="#41B5E1" d="M259.782,125.647C259.848,125.646,259.841,125.646,259.782,125.647L259.782,125.647z"/>
<path fill="#41B5E1" d="M258.739,125.68c-0.002,0-0.005,0-0.007,0c0.008,0,0.015,0,0.022-0.001
	C258.749,125.68,258.744,125.68,258.739,125.68z"/>
<g>
	<text x="1134.2754" y="628.7207" font-family="Liberation Serif" font-size="40">RL</text>
	<text x="1367.918" y="628.7207" font-family="Liberation Serif" font-size="40">LL</text>
	<text x="1082.0664" y="312.2402" font-family="Liberation Serif" font-size="40">RA</text>
	<text x="1408.2441" y="312.2402" font-family="Liberation Serif" font-size="40">LA</text>
	<text x="79.0918" y="832.3281" font-family="Liberation Serif" font-size="40">RL</text>
	<text x="352.5996" y="832.3281" font-family="Liberation Serif" font-size="40">LL</text>
	<text x="443.7227" y="532.8301" font-family="Liberation Serif" font-size="40">LA</text>
	<text x="17.4316" y="532.8301" font-family="Liberation Serif" font-size="40">RA</text>
	<text x="631.9829" y="182.8682" font-family="Liberation Serif" font-size="40" enable-background="new"><tspan>RA = Right Arm</tspan><tspan x="631.9829" dy="48">LA = Left Arm</tspan><tspan x="631.9829" dy="48">RL = Right Leg</tspan><tspan x="631.9829" dy="48">LL = Left Leg</tspan></text>
	<text x="631.9829" y="705.7695" font-family="Liberation Serif" font-size="40" enable-background="new"><tspan>RA - White</tspan><tspan x="631.9829" dy="48">LA - Black</tspan><tspan x="631.9829" dy="48">RL - Green</tspan><tspan x="631.9829" dy="48">LL - Red</tspan></text>
</g>
</svg>
